{
  "source": "C:\\Users\\Peter\\Desktop\\stuff\\MIUN\\quantitative_research\\video_compression\\videos\\BVI-HD\\BVI-HD_CDVL_videos\\ORIG\\MartialArts_1920x1080_60fps.mp4",
  "output": "C:\\Users\\Peter\\Desktop\\stuff\\MIUN\\quantitative_research\\video_compression\\compressed_videos\\BVI-HD\\av1\\2\\MartialArts_1920x1080_60fps_av1.mkv",
  "codec": "av1",
  "ok": "Input #0, mov,mp4,m4a,3gp,3g2,mj2, from 'C:\\Users\\Peter\\Desktop\\stuff\\MIUN\\quantitative_research\\video_compression\\videos\\BVI-HD\\BVI-HD_CDVL_videos\\ORIG\\MartialArts_1920x1080_60fps.mp4':\n  Metadata:\n    major_brand     : isom\n    minor_version   : 512\n    compatible_brands: isomiso2avc1mp41\n    encoder         : Lavf54.28.101\n  Duration: 00:00:05.00, start: 0.000000, bitrate: 120609 kb/s\n  Stream #0:0[0x1](und): Video: h264 (High 4:4:4 Predictive) (avc1 / 0x31637661), yuv420p(progressive), 1920x1080, 120605 kb/s, 60 fps, 60 tbr, 60 tbn (default)\n    Metadata:\n      handler_name    : VideoHandler\n      vendor_id       : [0][0][0][0]\n[out#0/matroska @ 000001fc876f97c0] Codec AVOption b:a (set bitrate (in bits/s)) has not been used for any stream. The most likely reason is either wrong type (e.g. a video option with no video streams) or that it is a private option of some decoder which was not actually used for any stream.\nStream mapping:\n  Stream #0:0 -> #0:0 (h264 (native) -> av1 (libsvtav1))\nPress [q] to stop, [?] for help\nSvt[info]: -------------------------------------------\nSvt[info]: SVT [version]:\tSVT-AV1 Encoder Lib v3.1.0-19-g6ecfe8ec\nSvt[info]: SVT [build]  :\tGCC 15.2.0\t 64 bit\nSvt[info]: LIB Build date: Aug 17 2025 11:37:13\nSvt[info]: -------------------------------------------\nSvt[info]: Level of Parallelism: 5\nSvt[info]: Number of PPCS 93\nSvt[info]: [asm level on system : up to avx2]\nSvt[info]: [asm level selected : up to avx2]\nSvt[info]: -------------------------------------------\nSvt[info]: SVT [config]: main profile\ttier (auto)\tlevel (auto)\nSvt[info]: SVT [config]: width / height / fps numerator / fps denominator \t\t: 1920 / 1080 / 60 / 1\nSvt[info]: SVT [config]: bit-depth / color format \t\t\t\t\t: 8 / YUV420\nSvt[info]: SVT [config]: preset / tune / pred struct \t\t\t\t\t: 4 / PSNR / random access\nSvt[info]: SVT [config]: gop size / mini-gop size / key-frame type \t\t\t: 321 / 16 / key frame\nSvt[info]: SVT [config]: BRC mode / target bitrate (kbps)\t\t\t\t: VBR / 2000 \nSvt[info]: SVT [config]: AQ mode / Variance Boost \t\t\t\t\t: 2 / 0\nSvt[info]: SVT [config]: sharpness / luminance-based QP bias \t\t\t\t: 0 / 0\nSvt[info]: SVT [config]: QP scale compress strength \t\t\t\t\t: 0\nSvt[info]: -------------------------------------------\nOutput #0, matroska, to 'C:\\Users\\Peter\\Desktop\\stuff\\MIUN\\quantitative_research\\video_compression\\compressed_videos\\BVI-HD\\av1\\2\\MartialArts_1920x1080_60fps_av1.mkv':\n  Metadata:\n    major_brand     : isom\n    minor_version   : 512\n    compatible_brands: isomiso2avc1mp41\n    encoder         : Lavf62.3.100\n  Stream #0:0(und): Video: av1 (AV01 / 0x31305641), yuv420p(tv, progressive), 1920x1080, q=2-31, 2000 kb/s, 60 fps, 1k tbn (default)\n    Metadata:\n      encoder         : Lavc62.11.100 libsvtav1\n      handler_name    : VideoHandler\n      vendor_id       : [0][0][0][0]\n    Side data:\n      cpb: bitrate max/min/avg: 0/0/2000000 buffer size: 2000000 vbv_delay: N/A\nframe=    0 fps=0.0 q=0.0 size=       0KiB time=N/A bitrate=N/A speed=N/A elapsed=0:00:01.06    \nframe=    0 fps=0.0 q=0.0 size=       0KiB time=N/A bitrate=N/A speed=N/A elapsed=0:00:01.58    \nframe=    0 fps=0.0 q=0.0 size=       0KiB time=N/A bitrate=N/A speed=N/A elapsed=0:00:02.12    \nframe=    0 fps=0.0 q=0.0 size=       0KiB time=N/A bitrate=N/A speed=N/A elapsed=0:00:02.66    \nframe=    0 fps=0.0 q=0.0 size=       0KiB time=N/A bitrate=N/A speed=N/A elapsed=0:00:03.18    \nframe=    1 fps=0.3 q=7.0 size=       1KiB time=00:00:00.00 bitrate=N/A speed=   0x elapsed=0:00:03.70    \nframe=    1 fps=0.2 q=7.0 size=       1KiB time=00:00:00.00 bitrate=N/A speed=   0x elapsed=0:00:04.25    \nframe=    3 fps=0.6 q=34.0 size=       1KiB time=00:00:00.03 bitrate= 170.9kbits/s speed=0.00696x elapsed=0:00:04.78    \nframe=    8 fps=1.5 q=34.0 size=       1KiB time=00:00:00.11 bitrate=  48.8kbits/s speed=0.022x elapsed=0:00:05.31    \nframe=   11 fps=1.9 q=34.0 size=       1KiB time=00:00:00.16 bitrate=  34.2kbits/s speed=0.0285x elapsed=0:00:05.84    \nframe=   17 fps=2.7 q=18.0 size=       1KiB time=00:00:00.26 bitrate=  21.4kbits/s speed=0.0418x elapsed=0:00:06.37    \nframe=   22 fps=3.2 q=28.0 size=       1KiB time=00:00:00.35 bitrate=  16.3kbits/s speed=0.0506x elapsed=0:00:06.92    \nframe=   24 fps=3.2 q=28.0 size=       1KiB time=00:00:00.38 bitrate=  14.9kbits/s speed=0.0514x elapsed=0:00:07.46    \nframe=   27 fps=3.4 q=29.0 size=       1KiB time=00:00:00.43 bitrate=  13.1kbits/s speed=0.0543x elapsed=0:00:07.97    \nframe=   30 fps=3.5 q=23.0 size=       1KiB time=00:00:00.48 bitrate=  11.8kbits/s speed=0.0567x elapsed=0:00:08.52    \nframe=   34 fps=3.8 q=26.0 size=       1KiB time=00:00:00.55 bitrate=  10.4kbits/s speed=0.0608x elapsed=0:00:09.04    \nframe=   36 fps=3.8 q=23.0 size=       1KiB time=00:00:00.58 bitrate=   9.8kbits/s speed=0.0609x elapsed=0:00:09.58    \nframe=   39 fps=3.8 q=24.0 size=       1KiB time=00:00:00.63 bitrate=   9.0kbits/s speed=0.0625x elapsed=0:00:10.13    \nframe=   40 fps=3.7 q=21.0 size=       1KiB time=00:00:00.65 bitrate=   8.8kbits/s speed=0.0609x elapsed=0:00:10.68    \nframe=   43 fps=3.8 q=28.0 size=       1KiB time=00:00:00.68 bitrate=   8.3kbits/s speed=0.0607x elapsed=0:00:11.26    \nframe=   44 fps=3.7 q=24.0 size=       1KiB time=00:00:00.71 bitrate=   7.9kbits/s speed=0.0602x elapsed=0:00:11.90    \nframe=   46 fps=3.7 q=25.0 size=       1KiB time=00:00:00.75 bitrate=   7.6kbits/s speed=0.0596x elapsed=0:00:12.58    \nframe=   50 fps=3.8 q=26.0 size=       1KiB time=00:00:00.81 bitrate=   7.0kbits/s speed=0.0618x elapsed=0:00:13.21    \nframe=   51 fps=3.7 q=30.0 size=       1KiB time=00:00:00.83 bitrate=   6.8kbits/s speed=0.0605x elapsed=0:00:13.77    \nframe=   53 fps=3.7 q=31.0 size=       1KiB time=00:00:00.86 bitrate=   6.6kbits/s speed=0.0605x elapsed=0:00:14.32    \nframe=   54 fps=3.6 q=27.0 size=       1KiB time=00:00:00.88 bitrate=   6.4kbits/s speed=0.0594x elapsed=0:00:14.87    \nframe=   58 fps=3.8 q=28.0 size=       1KiB time=00:00:00.95 bitrate=   6.0kbits/s speed=0.0617x elapsed=0:00:15.39    \nframe=   60 fps=3.8 q=28.0 size=       1KiB time=00:00:00.98 bitrate=   5.8kbits/s speed=0.0617x elapsed=0:00:15.92    \nframe=   64 fps=3.9 q=29.0 size=       1KiB time=00:00:01.05 bitrate=   5.4kbits/s speed=0.0636x elapsed=0:00:16.51    \nframe=   68 fps=4.0 q=30.0 size=       1KiB time=00:00:01.11 bitrate=   5.1kbits/s speed=0.0656x elapsed=0:00:17.03    \nframe=   70 fps=4.0 q=29.0 size=       1KiB time=00:00:01.15 bitrate=   5.0kbits/s speed=0.0655x elapsed=0:00:17.55    \nframe=   73 fps=4.0 q=23.0 size=       1KiB time=00:00:01.20 bitrate=   4.7kbits/s speed=0.0665x elapsed=0:00:18.05    \nframe=   76 fps=4.1 q=27.0 size=       1KiB time=00:00:01.25 bitrate=   4.6kbits/s speed=0.0673x elapsed=0:00:18.57    \nframe=   81 fps=4.2 q=7.0 size=       1KiB time=00:00:01.33 bitrate=   4.3kbits/s speed=0.0698x elapsed=0:00:19.11    \nframe=   83 fps=4.2 q=32.0 size=       1KiB time=00:00:01.36 bitrate=   4.2kbits/s speed=0.0696x elapsed=0:00:19.63    \nframe=   86 fps=4.3 q=28.0 size=       1KiB time=00:00:01.41 bitrate=   4.0kbits/s speed=0.0703x elapsed=0:00:20.14    \nframe=   89 fps=4.3 q=22.0 size=       1KiB time=00:00:01.46 bitrate=   3.9kbits/s speed=0.071x elapsed=0:00:20.65    \nframe=   92 fps=4.3 q=27.0 size=       1KiB time=00:00:01.51 bitrate=   3.8kbits/s speed=0.0716x elapsed=0:00:21.17    \nframe=   97 fps=4.5 q=6.0 size=       1KiB time=00:00:01.60 bitrate=   3.6kbits/s speed=0.0738x elapsed=0:00:21.69    \nframe=  100 fps=4.5 q=27.0 size=       1KiB time=00:00:01.65 bitrate=   3.5kbits/s speed=0.0743x elapsed=0:00:22.21    \nframe=  103 fps=4.5 q=30.0 size=       1KiB time=00:00:01.70 bitrate=   3.4kbits/s speed=0.0748x elapsed=0:00:22.73    \nframe=  107 fps=4.6 q=33.0 size=       1KiB time=00:00:01.76 bitrate=   3.2kbits/s speed=0.076x elapsed=0:00:23.25    \nframe=  112 fps=4.7 q=28.0 size=       1KiB time=00:00:01.85 bitrate=   3.1kbits/s speed=0.0778x elapsed=0:00:23.79    \nframe=  117 fps=4.8 q=32.0 size=       1KiB time=00:00:01.93 bitrate=   2.9kbits/s speed=0.0795x elapsed=0:00:24.31    \nframe=  120 fps=4.8 q=27.0 size=       1KiB time=00:00:01.98 bitrate=   2.9kbits/s speed=0.0799x elapsed=0:00:24.82    \nframe=  126 fps=5.0 q=28.0 size=       1KiB time=00:00:02.06 bitrate=   2.8kbits/s speed=0.0815x elapsed=0:00:25.34    \nframe=  130 fps=5.0 q=27.0 size=       1KiB time=00:00:02.15 bitrate=   2.6kbits/s speed=0.0831x elapsed=0:00:25.87    \nframe=  135 fps=5.1 q=31.0 size=       1KiB time=00:00:02.23 bitrate=   2.6kbits/s speed=0.0846x elapsed=0:00:26.38    \nframe=  138 fps=5.1 q=27.0 size=       1KiB time=00:00:02.28 bitrate=   2.5kbits/s speed=0.0848x elapsed=0:00:26.92    \nframe=  142 fps=5.2 q=28.0 size=       1KiB time=00:00:02.35 bitrate=   2.4kbits/s speed=0.0857x elapsed=0:00:27.43    \nframe=  147 fps=5.3 q=30.0 size=       1KiB time=00:00:02.43 bitrate=   2.3kbits/s speed=0.087x elapsed=0:00:27.96    \nframe=  150 fps=5.3 q=29.0 size=       1KiB time=00:00:02.48 bitrate=   2.3kbits/s speed=0.0872x elapsed=0:00:28.48    \nframe=  152 fps=5.2 q=29.0 size=       1KiB time=00:00:02.51 bitrate=   2.3kbits/s speed=0.0868x elapsed=0:00:28.99    \nframe=  156 fps=5.3 q=30.0 size=       1KiB time=00:00:02.58 bitrate=   2.2kbits/s speed=0.0875x elapsed=0:00:29.51    \nframe=  161 fps=5.4 q=10.0 size=       1KiB time=00:00:02.66 bitrate=   2.1kbits/s speed=0.0887x elapsed=0:00:30.05    \nframe=  164 fps=5.4 q=24.0 size=       1KiB time=00:00:02.71 bitrate=   2.1kbits/s speed=0.0889x elapsed=0:00:30.56    \nframe=  166 fps=5.3 q=32.0 size=       1KiB time=00:00:02.75 bitrate=   2.1kbits/s speed=0.0885x elapsed=0:00:31.08    \nframe=  168 fps=5.3 q=32.0 size=       1KiB time=00:00:02.78 bitrate=   2.0kbits/s speed=0.088x elapsed=0:00:31.61    \nframe=  171 fps=5.3 q=34.0 size=       1KiB time=00:00:02.83 bitrate=   2.0kbits/s speed=0.088x elapsed=0:00:32.18    \nframe=  173 fps=5.3 q=31.0 size=       1KiB time=00:00:02.86 bitrate=   2.0kbits/s speed=0.0876x elapsed=0:00:32.72    \nframe=  177 fps=5.3 q=12.0 size=       1KiB time=00:00:02.93 bitrate=   1.9kbits/s speed=0.0881x elapsed=0:00:33.28    \nframe=  179 fps=5.3 q=34.0 size=       1KiB time=00:00:02.96 bitrate=   1.9kbits/s speed=0.0877x elapsed=0:00:33.81    \nframe=  182 fps=5.3 q=34.0 size=       1KiB time=00:00:03.01 bitrate=   1.9kbits/s speed=0.0878x elapsed=0:00:34.34    \nframe=  184 fps=5.3 q=34.0 size=       1KiB time=00:00:03.05 bitrate=   1.9kbits/s speed=0.0875x elapsed=0:00:34.87    \nframe=  187 fps=5.3 q=34.0 size=       1KiB time=00:00:03.10 bitrate=   1.8kbits/s speed=0.0876x elapsed=0:00:35.38    \nframe=  192 fps=5.3 q=36.0 size=       1KiB time=00:00:03.18 bitrate=   1.8kbits/s speed=0.0886x elapsed=0:00:35.91    \nframe=  195 fps=5.4 q=32.0 size=       1KiB time=00:00:03.23 bitrate=   1.8kbits/s speed=0.0887x elapsed=0:00:36.44    \nframe=  198 fps=5.4 q=35.0 size=       1KiB time=00:00:03.28 bitrate=   1.7kbits/s speed=0.0888x elapsed=0:00:36.96    \nframe=  200 fps=5.3 q=35.0 size=       1KiB time=00:00:03.31 bitrate=   1.7kbits/s speed=0.0884x elapsed=0:00:37.50    \nframe=  205 fps=5.4 q=31.0 size=       1KiB time=00:00:03.40 bitrate=   1.7kbits/s speed=0.0893x elapsed=0:00:38.07    \nframe=  209 fps=5.4 q=15.0 size=       1KiB time=00:00:03.46 bitrate=   1.6kbits/s speed=0.0898x elapsed=0:00:38.60    \nframe=  213 fps=5.4 q=33.0 size=       1KiB time=00:00:03.53 bitrate=   1.6kbits/s speed=0.0902x elapsed=0:00:39.15    \nframe=  217 fps=5.5 q=28.0 size=       1KiB time=00:00:03.60 bitrate=   1.6kbits/s speed=0.0907x elapsed=0:00:39.69    \nframe=  221 fps=5.5 q=31.0 size=       1KiB time=00:00:03.66 bitrate=   1.6kbits/s speed=0.0911x elapsed=0:00:40.25    \nframe=  223 fps=5.5 q=34.0 size=       1KiB time=00:00:03.70 bitrate=   1.5kbits/s speed=0.0907x elapsed=0:00:40.78    \nframe=  229 fps=5.5 q=34.0 size=       1KiB time=00:00:03.80 bitrate=   1.5kbits/s speed=0.092x elapsed=0:00:41.29    \nframe=  231 fps=5.5 q=33.0 size=       1KiB time=00:00:03.83 bitrate=   1.5kbits/s speed=0.0916x elapsed=0:00:41.83    \nframe=  233 fps=5.5 q=29.0 size=       1KiB time=00:00:03.86 bitrate=   1.5kbits/s speed=0.0913x elapsed=0:00:42.34    \nframe=  237 fps=5.5 q=32.0 size=       1KiB time=00:00:03.93 bitrate=   1.4kbits/s speed=0.0918x elapsed=0:00:42.86    \nframe=  241 fps=5.6 q=19.0 size=       1KiB time=00:00:04.00 bitrate=   1.4kbits/s speed=0.0921x elapsed=0:00:43.41    \nframe=  243 fps=5.5 q=37.0 size=       1KiB time=00:00:04.03 bitrate=   1.4kbits/s speed=0.0918x elapsed=0:00:43.94    \nframe=  247 fps=5.6 q=33.0 size=       1KiB time=00:00:04.10 bitrate=   1.4kbits/s speed=0.0922x elapsed=0:00:44.48    \nframe=  249 fps=5.5 q=29.0 size=       1KiB time=00:00:04.13 bitrate=   1.4kbits/s speed=0.0919x elapsed=0:00:44.99    \nframe=  251 fps=5.5 q=36.0 size=       1KiB time=00:00:04.16 bitrate=   1.4kbits/s speed=0.0915x elapsed=0:00:45.52    \nframe=  255 fps=5.5 q=34.0 size=       1KiB time=00:00:04.23 bitrate=   1.3kbits/s speed=0.0918x elapsed=0:00:46.10    \nframe=  259 fps=5.5 q=37.0 size=       1KiB time=00:00:04.30 bitrate=   1.3kbits/s speed=0.0921x elapsed=0:00:46.67    \nframe=  261 fps=5.5 q=34.0 size=       1KiB time=00:00:04.33 bitrate=   1.3kbits/s speed=0.0918x elapsed=0:00:47.20    \nframe=  265 fps=5.5 q=28.0 size=       1KiB time=00:00:04.40 bitrate=   1.3kbits/s speed=0.0921x elapsed=0:00:47.75    \nframe=  267 fps=5.5 q=37.0 size=       1KiB time=00:00:04.43 bitrate=   1.3kbits/s speed=0.0918x elapsed=0:00:48.31    \nframe=  271 fps=5.5 q=37.0 size=       1KiB time=00:00:04.46 bitrate=   1.3kbits/s speed=0.0914x elapsed=0:00:48.85    \nframe=  275 fps=5.6 q=39.0 size=       1KiB time=00:00:04.56 bitrate=   1.2kbits/s speed=0.0924x elapsed=0:00:49.39    \nframe=  279 fps=5.6 q=39.0 size=       1KiB time=00:00:04.63 bitrate=   1.2kbits/s speed=0.0928x elapsed=0:00:49.94    \nframe=  281 fps=5.6 q=35.0 size=       1KiB time=00:00:04.66 bitrate=   1.2kbits/s speed=0.0924x elapsed=0:00:50.48    \nframe=  285 fps=5.6 q=39.0 size=       1KiB time=00:00:04.73 bitrate=   1.2kbits/s speed=0.0928x elapsed=0:00:50.99    \n[out#0/matroska @ 000001fc876f97c0] video:1119KiB audio:0KiB subtitle:0KiB other streams:0KiB global headers:0KiB muxing overhead: 0.185632%\nframe=  300 fps=5.8 q=39.0 Lsize=    1121KiB time=00:00:04.98 bitrate=1842.8kbits/s speed=0.0968x elapsed=0:00:51.48    \n",
  "seconds": 51.9694938659668,
  "probe_out": {}
}